<svg width="708" height="369" viewBox="0 0 708 369" fill="none" xmlns="http://www.w3.org/2000/svg">
<g clip-path="url(#clip0_54_2289)">
<path d="M155.557 171.781L302.42 123.497L306.922 80.3638L138.572 135.81L155.557 171.781Z" fill="var(--bee-wing-color, black)"/>
<path d="M88.7764 285.605L111.043 186.416L144.723 175.342L127.738 139.372L61.4583 161.208L0 298.639L88.7764 285.605Z" fill="var(--bee-wing-color, black)"/>
<path d="M92.7376 296.468L8.46248 308.842L164.069 358.997L189.296 335.93L92.7376 296.468Z" fill="var(--bee-wing-color, black)"/>
<path d="M120.686 195.158L100.02 287.215L198.529 327.477L289.837 243.972L301.13 135.84L120.686 195.158Z" fill="var(--bee-wing-color, black)"/>
<path d="M552.345 171.781L405.481 123.497L400.98 80.3638L569.33 135.81L552.345 171.781Z" fill="var(--bee-wing-color, black)"/>
<path d="M619.125 285.605L596.858 186.416L563.178 175.342L580.163 139.372L646.443 161.208L707.902 298.639L619.125 285.605Z" fill="var(--bee-wing-color, black)"/>
<path d="M615.163 296.468L699.438 308.842L543.832 358.997L518.614 335.93L615.163 296.468Z" fill="var(--bee-wing-color, black)"/>
<path d="M587.225 195.158L607.891 287.215L509.372 327.477L418.065 243.972L406.771 135.84L587.225 195.158Z" fill="var(--bee-wing-color, black)"/>
<path d="M400.289 19.4662H306.832L260.108 100.4L306.832 181.334H400.289L447.013 100.4L400.289 19.4662Z" fill="var(--bee-wing-color, black)"/>
<path d="M334.36 1.01052C334.59 1.19057 334.61 1.6407 334.58 1.93079C334.38 4.70162 333.14 8.31269 332.84 11.3136C332.169 17.9756 331.119 31.1995 338.041 34.8206C342.593 37.2113 358.577 37.1013 363.909 36.321C369.271 35.5408 372.632 33.6302 373.852 28.0686C375.752 19.356 374.192 9.94318 372.622 1.32061C372.812 0.760442 373.372 0.72043 373.872 0.640406C375.062 0.430343 380.324 -0.299874 381.034 0.120251C382.144 0.780448 383.495 12.3039 383.595 14.1544C384.085 23.4172 384.315 36.6711 375.262 41.9127C366.83 46.7841 342.733 46.5841 333.8 42.893C322.727 38.3016 322.987 23.6873 323.567 13.5242C323.667 11.7837 325.197 0.730433 326.118 0.120251C326.718 -0.279868 333.85 0.600394 334.36 1.00051V1.01052Z" fill="var(--bee-wing-color, black)"/>
<path d="M270.071 363.999L185.866 218.125L270.071 72.2617H438.511L522.726 218.125L438.511 363.999H270.071Z" fill="var(--bee-body-color, #FFCC33)"/>
<path d="M435.62 77.2632L516.944 218.125L435.62 358.997H272.962L191.637 218.125L272.962 77.2632H435.62ZM441.402 67.2603H267.19L264.299 72.2617L182.975 213.124L180.084 218.125L182.975 223.127L264.299 363.999L267.19 369H441.402L444.293 363.999L525.617 223.127L528.508 218.125L525.617 213.124L444.293 72.2617L441.402 67.2603Z" fill="white"/>
<path d="M300.53 161.558C301.17 162.068 301.22 163.329 301.16 164.129C300.61 171.871 297.119 181.994 296.278 190.397C294.398 209.052 291.467 246.053 310.843 256.206C323.586 262.888 368.32 262.588 383.264 260.408C398.269 258.217 407.691 252.885 411.092 237.311C416.424 212.933 412.053 186.586 407.631 162.448C408.172 160.878 409.732 160.778 411.122 160.538C414.453 159.958 429.188 157.907 431.178 159.087C434.279 160.928 438.07 193.198 438.341 198.369C439.711 224.287 440.371 261.408 415.004 276.062C391.387 289.706 323.936 289.146 298.949 278.793C267.95 265.949 268.69 225.047 270.311 196.579C270.591 191.697 274.872 160.778 277.463 159.057C279.143 157.937 299.099 160.398 300.53 161.528V161.548V161.558Z" fill="var(--bee-wing-color, black)"/>
</g>
<defs>
<clipPath id="clip0_54_2289">
<rect width="707.69" height="368.89" fill="white" transform="scale(1.0003)"/>
</clipPath>
</defs>
</svg>
