<svg width="733" height="369" viewBox="0 0 733 369" fill="none" xmlns="http://www.w3.org/2000/svg">
<g clip-path="url(#clip0_54_2512)">
<path d="M175.192 152.839L328.181 130.796L340.102 89.1008L164.711 114.474L175.192 152.839Z" fill="var(--bee-wing-color, black)"/>
<path d="M89.671 253.321L128.826 159.519L163.91 154.459L153.429 116.104L84.3703 126.085L0 250.741L89.671 253.321Z" fill="var(--bee-wing-color, black)"/>
<path d="M91.6908 264.702L6.56037 262.252L151.078 338.651L179.912 320.319L91.6908 264.702Z" fill="var(--bee-wing-color, black)"/>
<path d="M136.797 169.801L100.463 256.861L190.474 313.608L294.876 247.23L324.77 142.717L136.797 169.801Z" fill="var(--bee-wing-color, black)"/>
<path d="M557.808 152.528L404.819 130.486L392.898 88.7907L568.289 114.154L557.808 152.528Z" fill="var(--bee-wing-color, black)"/>
<path d="M643.328 253.011L604.174 159.209L569.089 154.149L579.571 115.794L648.629 125.775L732.999 250.43L643.328 253.011Z" fill="var(--bee-wing-color, black)"/>
<path d="M641.308 264.392L726.439 261.942L581.921 338.341L553.087 320.009L641.308 264.392Z" fill="var(--bee-wing-color, black)"/>
<path d="M596.203 169.49L632.537 256.541L542.526 313.298L438.123 246.92L408.23 142.407L596.203 169.49Z" fill="var(--bee-wing-color, black)"/>
<path d="M413.221 19.4628H319.779L273.064 100.383L319.779 181.303H413.221L459.937 100.383L413.221 19.4628Z" fill="var(--bee-wing-color, black)"/>
<path d="M347.292 1.01034C347.522 1.19036 347.542 1.64042 347.512 1.93045C347.312 4.70079 346.072 8.31123 345.772 11.3116C345.102 17.9724 344.052 31.194 350.973 34.8145C355.523 37.2048 371.505 37.0948 376.836 36.3147C382.197 35.5346 385.557 33.6243 386.777 28.0637C388.677 19.3526 387.117 9.94143 385.547 1.32038C385.737 0.760309 386.297 0.720303 386.797 0.640294C387.987 0.430268 393.248 -0.299821 393.958 0.12023C395.068 0.780311 396.418 12.3017 396.518 14.1519C397.008 23.4131 397.239 36.6647 388.187 41.9054C379.756 46.7759 355.663 46.5759 346.732 42.8855C335.661 38.2949 335.921 23.6831 336.501 13.5219C336.601 11.7817 338.131 0.730305 339.051 0.12023C339.651 -0.279819 346.782 0.600289 347.292 1.00034V1.01034Z" fill="var(--bee-wing-color, black)"/>
<path d="M282.035 363.935L197.835 218.087L282.035 72.2491H450.446L534.636 218.087L450.446 363.935H282.035Z" fill="var(--bee-body-color, #FFCC33)"/>
<path d="M447.555 77.2497L528.865 218.087L447.555 358.934H284.925L203.615 218.087L284.925 77.2497H447.555ZM453.326 67.2485H279.145L276.254 72.2491L194.944 213.086L192.054 218.087L194.944 223.088L276.254 363.935L279.145 368.935H453.326L456.216 363.935L537.526 223.088L540.417 218.087L537.526 213.086L456.216 72.2491L453.326 67.2485Z" fill="white"/>
<path d="M312.488 161.53C313.128 162.04 313.178 163.3 313.118 164.1C312.568 171.841 309.078 181.962 308.238 190.363C306.357 209.016 303.427 246.01 322.799 256.161C335.541 262.842 380.266 262.542 395.208 260.362C410.21 258.172 419.631 252.841 423.032 237.269C428.362 212.896 423.992 186.553 419.571 162.42C420.111 160.85 421.672 160.75 423.062 160.51C426.392 159.93 441.124 157.879 443.114 159.06C446.215 160.9 450.005 193.164 450.275 198.334C451.645 224.248 452.305 261.362 426.942 276.014C403.329 289.656 335.891 289.096 310.908 278.744C279.914 265.903 280.654 225.008 282.274 196.544C282.554 191.664 286.835 160.75 289.425 159.03C291.106 157.909 311.058 160.37 312.488 161.5V161.52V161.53Z" fill="var(--bee-wing-color, black)"/>
</g>
<defs>
<clipPath id="clip0_54_2512">
<rect width="732.91" height="368.89" fill="white"/>
</clipPath>
</defs>
</svg>
