<svg width="96" height="68" viewBox="0 0 96 68" fill="none" xmlns="http://www.w3.org/2000/svg">
<g clip-path="url(#clip0_54_2384)">
<path d="M25.1191 25.5823L44.0561 24.9938L46.0794 20.0793L24.3685 20.7654L25.1191 25.5823Z" fill="#171717"/>
<path d="M13.3253 36.6494L19.3788 25.7606L23.7216 25.6256L22.971 20.8087L14.4232 21.0797L2.43772 35.1062L13.3253 36.6494Z" fill="#171717"/>
<path d="M13.4149 38.0634L3.07941 36.5986L19.6341 47.8849L23.3988 46.0472L13.4149 38.0634Z" fill="#171717"/>
<path d="M20.2102 27.1221L14.5918 37.2279L24.7772 45.3734L38.4035 38.72L43.4769 26.3999L20.2102 27.1221Z" fill="#171717"/>
<path d="M71.7624 39.3277L56.1706 28.5641L57.1356 23.3377L75.0051 35.6876L71.7624 39.3277Z" fill="#171717"/>
<path d="M75.6697 55.0211L76.4882 42.5897L72.9126 40.1212L76.1553 36.4811L83.1903 41.3441L85.6542 59.6286L75.6697 55.0211Z" fill="#171717"/>
<path d="M74.8276 56.1609L84.3058 60.5348L64.2762 61.0404L62.1109 57.4552L74.8276 56.1609Z" fill="#171717"/>
<path d="M75.0536 43.2839L74.294 54.8216L61.3179 56.1417L53.4771 43.1624L55.8953 30.0598L75.0536 43.2839Z" fill="#171717"/>
<path d="M59.1646 16.1545L48.1783 12.917L39.8821 20.8126L42.571 31.9453L53.5573 35.1828L61.8536 27.2872L59.1646 16.1545Z" fill="#171717"/>
<path d="M52.0539 11.7012C52.0747 11.7304 52.0615 11.784 52.0479 11.817C51.9284 12.1358 51.6575 12.5174 51.5182 12.8597C51.2087 13.6197 50.6271 15.1378 51.3154 15.8033C51.7676 16.242 53.6505 16.7828 54.3043 16.8757C54.9616 16.9697 55.4229 16.8616 55.759 16.2501C56.2842 15.2917 56.4268 14.1311 56.5409 13.0631C56.5827 13.0038 56.6499 13.0185 56.7115 13.0265C56.8587 13.043 57.5025 13.1394 57.5714 13.2134C57.6791 13.3295 57.4386 14.7309 57.3863 14.9519C57.123 16.0577 56.691 17.6238 55.4452 17.9263C54.2852 18.2069 51.4594 17.3486 50.5372 16.6053C49.3945 15.6819 49.9313 13.973 50.3516 12.7984C50.4237 12.5972 50.9865 11.3509 51.1158 11.311C51.2002 11.2848 52.0081 11.6353 52.0542 11.7001L52.0539 11.7012Z" fill="#171717"/>
<path d="M31.9216 52.1449L27.0762 32.0799L42.0277 17.8501L61.8285 23.685L66.6754 43.7492L51.7224 57.9799L31.9216 52.1449Z" fill="#171717"/>
<path d="M61.3155 24.173L65.9958 43.549L51.5559 57.2919L32.4347 51.6572L27.7547 32.28L42.1943 18.5383L61.3155 24.173ZM62.3416 23.1974L41.8623 17.1625L41.3493 17.6503L26.9096 31.392L26.3966 31.8798L26.5631 32.5679L31.2431 51.9451L31.4097 52.6332L51.889 58.6681L52.4021 58.1803L66.8421 44.4374L67.3552 43.9496L67.1886 43.2615L62.5082 23.8854L62.3416 23.1974Z" fill="#FFCC33"/>
<path d="M42.5147 29.4024C42.5723 29.4846 42.5345 29.6345 42.4997 29.7265C42.1669 30.6175 41.4058 31.6866 41.016 32.6452C40.1486 34.7731 38.5223 39.0212 40.4483 40.8859C41.7149 42.1129 46.9839 43.6272 48.8162 43.8886C50.656 44.1508 51.9483 43.8505 52.8877 42.1375C54.3589 39.4565 54.7577 36.2078 55.0741 33.2172C55.192 33.0513 55.3789 33.0936 55.5507 33.1135C55.9624 33.1607 57.7655 33.4301 57.9586 33.6378C58.2594 33.9616 57.5872 37.8863 57.4398 38.5036C56.703 41.5978 55.4947 45.9844 52.005 46.8284C48.7561 47.6141 40.8465 45.2117 38.2678 43.1291C35.0686 40.5454 36.5725 35.7628 37.7492 32.4724C37.9512 31.9083 39.5256 28.4219 39.8897 28.3094C40.1261 28.2359 42.3868 29.2165 42.5157 29.3989L42.5151 29.4012L42.5147 29.4024Z" fill="#FFCC33"/>
</g>
<defs>
<clipPath id="clip0_54_2384">
<rect width="86" height="44.8283" fill="white" transform="translate(12.7831) scale(1.00877) rotate(16.4194)"/>
</clipPath>
</defs>
</svg>
