<svg width="96" height="70" viewBox="0 0 96 70" fill="none" xmlns="http://www.w3.org/2000/svg">
<g clip-path="url(#clip0_54_2406)">
<path d="M24.4914 40.625L39.7335 29.5203L38.641 24.3442L21.1727 37.0851L24.4914 40.625Z" fill="#FFCC33"/>
<path d="M21.0007 56.3399L19.8716 43.9908L23.3671 41.4441L20.0483 37.9041L13.1713 42.9211L11.1824 61.1773L21.0007 56.3399Z" fill="#FFCC33"/>
<path d="M21.8669 57.4528L12.5464 62.045L32.4894 62.041L34.5545 58.4185L21.8669 57.4528Z" fill="#FFCC33"/>
<path d="M21.3183 44.6447L22.3661 56.1059L35.3101 57.0914L42.7835 43.978L40.0456 31.0016L21.3183 44.6447Z" fill="#FFCC33"/>
<path d="M70.5562 25.7676L51.6982 25.6613L49.5605 20.8224L71.1811 20.9556L70.5562 25.7676Z" fill="#FFCC33"/>
<path d="M82.5715 36.4812L76.2723 25.7996L71.9477 25.7752L72.5726 20.9632L81.085 21.0165L93.366 34.6701L82.5715 36.4812Z" fill="#FFCC33"/>
<path d="M82.5182 37.8909L92.7654 36.1717L76.5784 47.821L72.7871 46.0874L82.5182 37.8909Z" fill="#FFCC33"/>
<path d="M75.4807 27.1754L81.327 37.0889L71.3971 45.4521L57.6701 39.1766L52.31 27.046L75.4807 27.1754Z" fill="#FFCC33"/>
<path d="M47.2 13.7783L36.3501 17.2778L33.9562 28.4234L42.4112 36.0698L53.2611 32.5703L55.6549 21.4247L47.2 13.7783Z" fill="#FFCC33"/>
<path d="M38.8551 14.1044C38.8885 14.1166 38.9077 14.1682 38.9151 14.203C38.9956 14.5321 38.9868 14.9978 39.0644 15.3574C39.236 16.1559 39.6092 17.7305 40.5484 17.8917C41.1664 17.9988 43.018 17.3875 43.6077 17.0973C44.201 16.8059 44.5196 16.4583 44.453 15.7669C44.3474 14.6842 43.8138 13.6499 43.3086 12.7077C43.3097 12.6355 43.3732 12.6099 43.4283 12.5819C43.5586 12.5129 44.1421 12.2311 44.2403 12.2533C44.3939 12.2884 44.9822 13.5756 45.0631 13.7867C45.4669 14.8437 45.9899 16.3738 45.1352 17.3213C44.3386 18.2026 41.5336 19.0817 40.3583 18.9876C38.9009 18.8692 38.3838 17.1629 38.0706 15.9613C38.0171 15.7555 37.7809 14.4149 37.8649 14.3096C37.9195 14.2407 38.7805 14.0758 38.8547 14.1032L38.8551 14.1044Z" fill="#FFCC33"/>
<path d="M44.9835 58.6525L29.7456 44.8704L34.0595 24.7835L53.6144 18.4763L68.8531 32.2568L64.5384 52.3453L44.9835 58.6525Z" fill="#171717"/>
<path d="M53.4659 19.1652L68.1817 32.4733L64.0153 51.8729L45.1317 57.9636L30.4155 44.6543L34.5822 25.2559L53.4659 19.1652ZM53.7626 17.7874L33.5376 24.3107L33.3893 24.9996L29.2225 44.398L29.0742 45.0869L29.5971 45.5593L44.3133 58.8686L44.8361 59.341L65.0611 52.8177L65.2095 52.1288L69.3758 32.7292L69.5242 32.0403L69.0013 31.5679L54.2855 18.2598L53.7626 17.7874Z" fill="#FFCC33"/>
<path d="M40.9392 34.0099C41.0326 34.0451 41.0856 34.1896 41.1086 34.2847C41.3346 35.2042 41.3084 36.5101 41.5255 37.5171C42.0057 39.7533 43.0509 44.1586 45.6805 44.6118C47.4102 44.9104 52.5923 43.2005 54.2456 42.3878C55.9055 41.5716 56.7998 40.5998 56.6114 38.6643C56.3176 35.6346 54.8235 32.7395 53.4064 30.1028C53.4103 29.9003 53.5877 29.8302 53.7402 29.7503C54.1051 29.5582 55.7389 28.7684 56.0142 28.8309C56.4431 28.9285 58.0916 32.5329 58.3166 33.1231C59.4462 36.0807 60.9128 40.3655 58.5165 43.0167C56.2856 45.485 48.4341 47.9456 45.1455 47.6793C41.0657 47.349 39.6201 42.5728 38.7422 39.2071C38.592 38.6299 37.9313 34.88 38.1676 34.5833C38.3207 34.3903 40.7297 33.9287 40.938 34.0064L40.9388 34.0087L40.9392 34.0099Z" fill="#FFCC33"/>
</g>
<defs>
<clipPath id="clip0_54_2406">
<rect width="86.0307" height="44.8443" fill="white" transform="translate(0 26.5071) scale(1.00374) rotate(-17.8764)"/>
</clipPath>
</defs>
</svg>
