<svg width="38" height="97" viewBox="0 0 38 97" fill="none" xmlns="http://www.w3.org/2000/svg">
<g clip-path="url(#clip0_24_2293)">
<mask id="mask0_24_2293" style="mask-type:luminance" maskUnits="userSpaceOnUse" x="-1" y="-1" width="39" height="10">
<path d="M37.301 -0.0051363H-0.0156535V8.61004H37.301V-0.0051363Z" fill="white"/>
</mask>
<g mask="url(#mask0_24_2293)">
<path d="M30.3476 -23.1348L-50.7056 30.4766L-46.0274 37.5666L35.0257 -16.0448L30.3476 -23.1348Z" fill="#171717"/>
<path d="M35.0045 -16.0787L-46.0486 37.5327L-41.3705 44.6227L39.6827 -8.98874L35.0045 -16.0787Z" fill="#FFCC33"/>
<path d="M39.6575 -9.02244L-41.3956 44.589L-36.7175 51.679L44.3357 -1.93244L39.6575 -9.02244Z" fill="#171717"/>
<path d="M44.3144 -1.96639L-36.7387 51.645L-32.0605 58.735L48.9926 5.12361L44.3144 -1.96639Z" fill="#FFCC33"/>
<path d="M48.9713 5.08941L-32.0818 58.7008L-27.4036 65.7908L53.6495 12.1794L48.9713 5.08941Z" fill="#171717"/>
</g>
<mask id="mask1_24_2293" style="mask-type:luminance" maskUnits="userSpaceOnUse" x="-1" y="23" width="39" height="5">
<path d="M37.2892 23.5548H-0.0273936V27.0447H37.2892V23.5548Z" fill="white"/>
</mask>
<g mask="url(#mask1_24_2293)">
<path d="M37.828 -23.1348L-43.2251 30.4766L-38.547 37.5666L42.5062 -16.0448L37.828 -23.1348Z" fill="#171717"/>
<path d="M42.4849 -16.0787L-38.5682 37.5327L-33.89 44.6227L47.1631 -8.98874L42.4849 -16.0787Z" fill="#FFCC33"/>
<path d="M47.1418 -9.02195L-33.9113 44.5894L-29.2331 51.6794L51.82 -1.93195L47.1418 -9.02195Z" fill="#171717"/>
<path d="M51.7948 -1.96639L-29.2583 51.645L-24.5801 58.735L56.473 5.1236L51.7948 -1.96639Z" fill="#FFCC33"/>
<path d="M56.4497 5.08991L-24.6034 58.7013L-19.9252 65.7913L61.1279 12.1799L56.4497 5.08991Z" fill="#171717"/>
<path d="M61.1067 12.1464L-19.9465 65.7578L-15.2683 72.8478L65.7848 19.2364L61.1067 12.1464Z" fill="#FFCC33"/>
<path d="M65.8516 19.1431L-15.2015 72.7545L-10.5233 79.8445L70.5298 26.2331L65.8516 19.1431Z" fill="#171717"/>
<path d="M70.5085 26.1996L-10.5446 79.811L-5.8664 86.901L75.1867 33.2896L70.5085 26.1996Z" fill="#FFCC33"/>
</g>
<mask id="mask2_24_2293" style="mask-type:luminance" maskUnits="userSpaceOnUse" x="-1" y="26" width="39" height="20">
<path d="M37.2892 26.9915H-0.0273936V45.5929H37.2892V26.9915Z" fill="white"/>
</mask>
<g mask="url(#mask2_24_2293)">
<path d="M30.913 -23.1353L-50.1401 30.4761L-45.4619 37.5661L35.5912 -16.0453L30.913 -23.1353Z" fill="#171717"/>
<path d="M35.57 -16.0787L-45.4832 37.5327L-40.805 44.6227L40.2481 -8.98874L35.57 -16.0787Z" fill="#FFCC33"/>
<path d="M40.2269 -9.02244L-40.8262 44.589L-36.1481 51.679L44.9051 -1.93244L40.2269 -9.02244Z" fill="#171717"/>
<path d="M44.8799 -1.96688L-36.1732 51.6445L-31.4951 58.7345L49.5581 5.12312L44.8799 -1.96688Z" fill="#FFCC33"/>
<path d="M49.5348 5.08991L-31.5183 58.7013L-26.8401 65.7913L54.213 12.1799L49.5348 5.08991Z" fill="#171717"/>
<path d="M54.1917 12.146L-26.8614 65.7574L-22.1832 72.8474L58.8699 19.236L54.1917 12.146Z" fill="#FFCC33"/>
<path d="M58.9367 19.1431L-22.1164 72.7545L-17.4382 79.8445L63.6149 26.2331L58.9367 19.1431Z" fill="#171717"/>
<path d="M63.5936 26.1991L-17.4595 79.8105L-12.7813 86.9005L68.2718 33.2891L63.5936 26.1991Z" fill="#FFCC33"/>
<path d="M68.2505 33.2549L-12.8026 86.8663L-8.12442 93.9563L72.9287 40.3449L68.2505 33.2549Z" fill="#171717"/>
<path d="M72.9035 40.3115L-8.1496 93.9229L-3.47141 101.013L77.5817 47.4015L72.9035 40.3115Z" fill="#FFCC33"/>
</g>
<mask id="mask3_24_2293" style="mask-type:luminance" maskUnits="userSpaceOnUse" x="-1" y="86" width="39" height="11">
<path d="M37.2892 86.7279H-0.0273936V96.987H37.2892V86.7279Z" fill="white"/>
</mask>
<g mask="url(#mask3_24_2293)">
<path d="M50.3351 26.1986L-30.718 79.81L-26.0398 86.9L55.0133 33.2886L50.3351 26.1986Z" fill="#FFCC33"/>
<path d="M54.992 33.2544L-26.0611 86.8658L-21.3829 93.9558L59.6702 40.3444L54.992 33.2544Z" fill="#171717"/>
<path d="M59.6489 40.3105L-21.4042 93.9219L-16.726 101.012L64.3271 47.4005L59.6489 40.3105Z" fill="#FFCC33"/>
<path d="M64.3019 47.3673L-16.7512 100.979L-12.073 108.069L68.9801 54.4573L64.3019 47.3673Z" fill="#171717"/>
<path d="M73.6373 61.5134L-7.41584 115.125L-1.94059 123.423L79.1125 69.8114L73.6373 61.5134Z" fill="#171717"/>
<path d="M68.9588 54.4231L-12.0943 108.034L-7.41609 115.124L73.637 61.5131L68.9588 54.4231Z" fill="#FFCC33"/>
</g>
<mask id="mask4_24_2293" style="mask-type:luminance" maskUnits="userSpaceOnUse" x="-1" y="82" width="39" height="5">
<path d="M37.2892 82.4501H-0.0273936V86.7282H37.2892V82.4501Z" fill="white"/>
</mask>
<g mask="url(#mask4_24_2293)">
<path d="M53.2193 26.1986L-27.8339 79.81L-23.1557 86.9L57.8974 33.2886L53.2193 26.1986Z" fill="#FFCC33"/>
<path d="M57.8723 33.2544L-23.1809 86.8658L-18.5027 93.9558L62.5504 40.3444L57.8723 33.2544Z" fill="#171717"/>
<path d="M62.5292 40.3105L-18.5239 93.9219L-13.8458 101.012L67.2074 47.4005L62.5292 40.3105Z" fill="#FFCC33"/>
<path d="M67.1861 47.3673L-13.867 100.979L-9.18885 108.069L71.8643 54.4573L67.1861 47.3673Z" fill="#171717"/>
<path d="M71.841 54.4231L-9.21208 108.034L-4.53389 115.124L76.5192 61.5131L71.841 54.4231Z" fill="#FFCC33"/>
</g>
<mask id="mask5_24_2293" style="mask-type:luminance" maskUnits="userSpaceOnUse" x="-1" y="78" width="39" height="5">
<path d="M37.2892 78.2334H-0.0273936V82.4504H37.2892V78.2334Z" fill="white"/>
</mask>
<g mask="url(#mask5_24_2293)">
<path d="M45.6821 19.1421L-35.371 72.7535L-30.6928 79.8435L50.3603 26.2321L45.6821 19.1421Z" fill="#171717"/>
<path d="M50.3351 26.1986L-30.718 79.81L-26.0398 86.9L55.0133 33.2886L50.3351 26.1986Z" fill="#FFCC33"/>
<path d="M54.992 33.2544L-26.0611 86.8658L-21.3829 93.9558L59.6702 40.3444L54.992 33.2544Z" fill="#171717"/>
<path d="M59.6489 40.3105L-21.4042 93.9219L-16.726 101.012L64.3271 47.4005L59.6489 40.3105Z" fill="#FFCC33"/>
<path d="M64.3019 47.3673L-16.7512 100.979L-12.073 108.069L68.9801 54.4573L64.3019 47.3673Z" fill="#171717"/>
<path d="M68.9588 54.4231L-12.0943 108.034L-7.41609 115.124L73.637 61.5131L68.9588 54.4231Z" fill="#FFCC33"/>
</g>
<mask id="mask6_24_2293" style="mask-type:luminance" maskUnits="userSpaceOnUse" x="-1" y="73" width="39" height="6">
<path d="M37.2892 73.1206H-0.0273936V78.101H37.2892V73.1206Z" fill="white"/>
</mask>
<g mask="url(#mask6_24_2293)">
<path d="M61.2436 19.1431L-19.8095 72.7545L-15.1313 79.8445L65.9218 26.2331L61.2436 19.1431Z" fill="#171717"/>
<path d="M65.8966 26.1996L-15.1565 79.811L-10.4783 86.901L70.5748 33.2896L65.8966 26.1996Z" fill="#FFCC33"/>
<path d="M70.5535 33.2554L-10.4996 86.8668L-5.8214 93.9568L75.2317 40.3454L70.5535 33.2554Z" fill="#171717"/>
<path d="M75.2104 40.3115L-5.84266 93.9229L-1.16448 101.013L79.8886 47.4015L75.2104 40.3115Z" fill="#FFCC33"/>
<path d="M79.8674 47.3673L-1.18575 100.979L3.49243 108.069L84.5455 54.4573L79.8674 47.3673Z" fill="#171717"/>
<path d="M84.5204 54.4231L3.46725 108.034L8.14543 115.124L89.1985 61.5131L84.5204 54.4231Z" fill="#FFCC33"/>
</g>
<mask id="mask7_24_2293" style="mask-type:luminance" maskUnits="userSpaceOnUse" x="-1" y="68" width="39" height="6">
<path d="M37.2892 68.3553H-0.0273936V73.1205H37.2892V68.3553Z" fill="white"/>
</mask>
<g mask="url(#mask7_24_2293)">
<path d="M58.2245 12.146L-22.8287 65.7574L-18.1505 72.8474L62.9026 19.236L58.2245 12.146Z" fill="#FFCC33"/>
<path d="M62.9714 19.1431L-18.0817 72.7545L-13.4035 79.8445L67.6496 26.2331L62.9714 19.1431Z" fill="#171717"/>
<path d="M67.6244 26.1996L-13.4287 79.811L-8.75055 86.901L72.3026 33.2896L67.6244 26.1996Z" fill="#FFCC33"/>
<path d="M72.2813 33.2549L-8.77182 86.8663L-4.09364 93.9563L76.9595 40.3449L72.2813 33.2549Z" fill="#171717"/>
<path d="M76.9382 40.311L-4.11491 93.9224L0.563273 101.012L81.6164 47.401L76.9382 40.311Z" fill="#FFCC33"/>
<path d="M81.5951 47.3678L0.542002 100.979L5.22018 108.069L86.2733 54.4578L81.5951 47.3678Z" fill="#171717"/>
<path d="M86.252 54.4233L5.19891 108.035L9.8771 115.125L90.9302 61.5133L86.252 54.4233Z" fill="#FFCC33"/>
</g>
<mask id="mask8_24_2293" style="mask-type:luminance" maskUnits="userSpaceOnUse" x="-1" y="58" width="39" height="11">
<path d="M37.2892 58.0979H-0.0273936V68.2994H37.2892V58.0979Z" fill="white"/>
</mask>
<g mask="url(#mask8_24_2293)">
<path d="M58.7136 -1.96639L-22.3395 51.645L-17.6613 58.735L63.3918 5.12361L58.7136 -1.96639Z" fill="#FFCC33"/>
<path d="M63.3666 5.08991L-17.6865 58.7013L-13.0083 65.7913L68.0448 12.1799L63.3666 5.08991Z" fill="#171717"/>
<path d="M68.0216 12.1464L-13.0315 65.7578L-8.35334 72.8478L72.6998 19.2364L68.0216 12.1464Z" fill="#FFCC33"/>
<path d="M72.7666 19.1431L-8.28656 72.7545L-3.60838 79.8445L77.4447 26.2331L72.7666 19.1431Z" fill="#171717"/>
<path d="M77.4235 26.1996L-3.62965 79.811L1.04853 86.901L82.1016 33.2896L77.4235 26.1996Z" fill="#FFCC33"/>
<path d="M82.0804 33.2559L1.02726 86.8673L5.70544 93.9573L86.7586 40.3459L82.0804 33.2559Z" fill="#171717"/>
<path d="M86.7373 40.3115L5.68417 93.9229L10.3624 101.013L91.4155 47.4015L86.7373 40.3115Z" fill="#FFCC33"/>
<path d="M91.3903 47.3678L10.3372 100.979L15.0154 108.069L96.0685 54.4578L91.3903 47.3678Z" fill="#171717"/>
<path d="M96.0472 54.4233L14.9941 108.035L19.6723 115.125L100.725 61.5133L96.0472 54.4233Z" fill="#FFCC33"/>
</g>
<mask id="mask9_24_2293" style="mask-type:luminance" maskUnits="userSpaceOnUse" x="-1" y="45" width="39" height="14">
<path d="M37.2892 45.468H-0.0273936V58.0982H37.2892V45.468Z" fill="white"/>
</mask>
<g mask="url(#mask9_24_2293)">
<path d="M32.1555 -9.02244L-48.8976 44.589L-44.2194 51.679L36.8337 -1.93244L32.1555 -9.02244Z" fill="#171717"/>
<path d="M36.8125 -1.96688L-44.2407 51.6445L-39.5625 58.7345L41.4906 5.12312L36.8125 -1.96688Z" fill="#FFCC33"/>
<path d="M41.4694 5.08893L-39.5838 58.7003L-34.9056 65.7903L46.1475 12.1789L41.4694 5.08893Z" fill="#171717"/>
<path d="M46.1224 12.1455L-34.9308 65.7569L-30.2526 72.8469L50.8005 19.2355L46.1224 12.1455Z" fill="#FFCC33"/>
<path d="M50.8693 19.1431L-30.1838 72.7545L-25.5056 79.8445L55.5475 26.2331L50.8693 19.1431Z" fill="#171717"/>
<path d="M55.5223 26.1986L-25.5308 79.81L-20.8527 86.9L60.2005 33.2886L55.5223 26.1986Z" fill="#FFCC33"/>
<path d="M60.1792 33.2544L-20.8739 86.8658L-16.1957 93.9558L64.8574 40.3444L60.1792 33.2544Z" fill="#171717"/>
<path d="M64.8361 40.311L-16.217 93.9224L-11.5388 101.012L69.5143 47.401L64.8361 40.311Z" fill="#FFCC33"/>
<path d="M69.493 47.3673L-11.5601 100.979L-6.88192 108.069L74.1712 54.4573L69.493 47.3673Z" fill="#171717"/>
<path d="M74.146 54.4231L-6.9071 108.034L-2.22892 115.124L78.8242 61.5131L74.146 54.4231Z" fill="#FFCC33"/>
</g>
<mask id="mask10_24_2293" style="mask-type:luminance" maskUnits="userSpaceOnUse" x="-1" y="8" width="39" height="16">
<path d="M37.2892 8.60991H-0.0273936V23.5546H37.2892V8.60991Z" fill="white"/>
</mask>
<g mask="url(#mask10_24_2293)">
<path d="M36.1002 -23.1345L-44.9529 30.4768L-40.2747 37.5668L40.7784 -16.0445L36.1002 -23.1345Z" fill="#171717"/>
<path d="M40.7571 -16.0787L-40.296 37.5327L-35.6178 44.6227L45.4353 -8.98874L40.7571 -16.0787Z" fill="#FFCC33"/>
<path d="M45.4101 -9.02244L-35.643 44.589L-30.9648 51.679L50.0883 -1.93244L45.4101 -9.02244Z" fill="#171717"/>
<path d="M50.0671 -1.96639L-30.9861 51.645L-26.3079 58.735L54.7452 5.1236L50.0671 -1.96639Z" fill="#FFCC33"/>
<path d="M54.722 5.08991L-26.3311 58.7013L-21.6529 65.7913L59.4002 12.1799L54.722 5.08991Z" fill="#171717"/>
<path d="M59.375 12.1464L-21.6781 65.7578L-16.9999 72.8478L64.0532 19.2364L59.375 12.1464Z" fill="#FFCC33"/>
<path d="M64.1239 19.1431L-16.9292 72.7545L-12.2511 79.8445L68.8021 26.2331L64.1239 19.1431Z" fill="#171717"/>
</g>
</g>
<defs>
<clipPath id="clip0_24_2293">
<rect width="37.2211" height="96.8235" fill="white" transform="scale(1.00182)"/>
</clipPath>
</defs>
</svg>
