<svg width="153" height="398" viewBox="0 0 153 398" fill="none" xmlns="http://www.w3.org/2000/svg">
<g clip-path="url(#clip0_24_132)">
<mask id="mask0_24_132" style="mask-type:luminance" maskUnits="userSpaceOnUse" x="-1" y="-1" width="155" height="37">
<path d="M153.05 -0.0214844H-0.0634766V35.3274H153.05V-0.0214844Z" fill="white"/>
</mask>
<g mask="url(#mask0_24_132)">
<path d="M124.517 -94.9256L-208.052 125.047L-188.857 154.138L143.712 -65.8346L124.517 -94.9256Z" fill="#171717"/>
<path d="M143.621 -65.9729L-188.947 154L-169.752 183.09L162.816 -36.882L143.621 -65.9729Z" fill="#FFCC33"/>
<path d="M162.727 -37.0203L-169.842 182.952L-150.647 212.043L181.922 -7.92937L162.727 -37.0203Z" fill="#171717"/>
<path d="M181.828 -8.06862L-150.74 211.904L-131.545 240.995L201.023 21.0223L181.828 -8.06862Z" fill="#FFCC33"/>
<path d="M200.934 20.8816L-131.635 240.854L-112.44 269.945L220.129 49.9725L200.934 20.8816Z" fill="#171717"/>
</g>
<mask id="mask1_24_132" style="mask-type:luminance" maskUnits="userSpaceOnUse" x="-1" y="96" width="154" height="15">
<path d="M152.997 96.647H-0.116211V110.966H152.997V96.647Z" fill="white"/>
</mask>
<g mask="url(#mask1_24_132)">
<path d="M155.209 -94.9251L-177.359 125.047L-158.164 154.138L174.404 -65.8342L155.209 -94.9251Z" fill="#171717"/>
<path d="M174.314 -65.9724L-158.254 154L-139.059 183.091L193.509 -36.8815L174.314 -65.9724Z" fill="#FFCC33"/>
<path d="M193.417 -37.0188L-139.151 182.954L-119.956 212.045L212.612 -7.9279L193.417 -37.0188Z" fill="#171717"/>
<path d="M212.52 -8.06815L-120.048 211.904L-100.853 240.995L231.715 21.0228L212.52 -8.06815Z" fill="#FFCC33"/>
<path d="M231.626 20.884L-100.942 240.856L-81.7474 269.947L250.821 49.9749L231.626 20.884Z" fill="#171717"/>
<path d="M250.727 49.8381L-81.8418 269.811L-62.6468 298.901L269.922 78.929L250.727 49.8381Z" fill="#FFCC33"/>
<path d="M270.197 78.5456L-62.3711 298.518L-43.1761 327.609L289.392 107.637L270.197 78.5456Z" fill="#171717"/>
<path d="M289.3 107.499L-43.2686 327.472L-24.0735 356.563L308.495 136.59L289.3 107.499Z" fill="#FFCC33"/>
</g>
<mask id="mask2_24_132" style="mask-type:luminance" maskUnits="userSpaceOnUse" x="-1" y="110" width="154" height="78">
<path d="M152.997 110.749H-0.116211V187.072H152.997V110.749Z" fill="white"/>
</mask>
<g mask="url(#mask2_24_132)">
<path d="M126.83 -94.9265L-205.738 125.046L-186.543 154.137L146.025 -65.8356L126.83 -94.9265Z" fill="#171717"/>
<path d="M145.935 -65.9744L-186.633 153.998L-167.438 183.089L165.13 -36.8835L145.935 -65.9744Z" fill="#FFCC33"/>
<path d="M165.038 -37.0203L-167.53 182.952L-148.335 212.043L184.233 -7.92937L165.038 -37.0203Z" fill="#171717"/>
<path d="M184.142 -8.0701L-148.427 211.902L-129.232 240.993L203.337 21.0208L184.142 -8.0701Z" fill="#FFCC33"/>
<path d="M203.247 20.8826L-129.321 240.855L-110.126 269.946L222.442 49.9735L203.247 20.8826Z" fill="#171717"/>
<path d="M222.35 49.8362L-110.219 269.809L-91.0237 298.9L241.545 78.9271L222.35 49.8362Z" fill="#FFCC33"/>
<path d="M241.818 78.5442L-90.75 298.517L-71.555 327.608L261.013 107.635L241.818 78.5442Z" fill="#171717"/>
<path d="M260.921 107.498L-71.6475 327.47L-52.4525 356.561L280.116 136.589L260.921 107.498Z" fill="#FFCC33"/>
<path d="M280.024 136.448L-52.5439 356.421L-33.349 385.512L299.219 165.539L280.024 136.448Z" fill="#171717"/>
<path d="M299.13 165.401L-33.4385 385.373L-14.2435 414.464L318.325 194.492L299.13 165.401Z" fill="#FFCC33"/>
</g>
<mask id="mask3_24_132" style="mask-type:luminance" maskUnits="userSpaceOnUse" x="-1" y="355" width="154" height="43">
<path d="M152.997 355.854H-0.116211V397.948H152.997V355.854Z" fill="white"/>
</mask>
<g mask="url(#mask3_24_132)">
<path d="M206.531 107.495L-126.037 327.467L-106.842 356.558L225.726 136.586L206.531 107.495Z" fill="#FFCC33"/>
<path d="M225.635 136.446L-106.934 356.418L-87.7386 385.509L244.83 165.536L225.635 136.446Z" fill="#171717"/>
<path d="M244.74 165.398L-87.8281 385.37L-68.6331 414.461L263.935 194.489L244.74 165.398Z" fill="#FFCC33"/>
<path d="M263.843 194.352L-68.7256 414.324L-49.5306 443.415L283.038 223.443L263.843 194.352Z" fill="#171717"/>
<path d="M302.142 252.395L-30.4268 472.367L-7.96133 506.415L324.607 286.442L302.142 252.395Z" fill="#171717"/>
<path d="M282.946 223.302L-49.6221 443.274L-30.4271 472.365L302.141 252.393L282.946 223.302Z" fill="#FFCC33"/>
</g>
<mask id="mask4_24_132" style="mask-type:luminance" maskUnits="userSpaceOnUse" x="-1" y="338" width="154" height="18">
<path d="M152.997 338.3H-0.116211V355.853H152.997V338.3Z" fill="white"/>
</mask>
<g mask="url(#mask4_24_132)">
<path d="M218.356 107.495L-114.212 327.467L-95.0169 356.558L237.551 136.586L218.356 107.495Z" fill="#FFCC33"/>
<path d="M237.458 136.446L-95.1104 356.418L-75.9154 385.509L256.653 165.536L237.458 136.446Z" fill="#171717"/>
<path d="M256.562 165.398L-76.0059 385.371L-56.8108 414.462L275.757 194.489L256.562 165.398Z" fill="#FFCC33"/>
<path d="M275.666 194.352L-56.9023 414.324L-37.7073 443.415L294.861 223.443L275.666 194.352Z" fill="#171717"/>
<path d="M294.769 223.302L-37.7988 443.274L-18.6038 472.365L313.964 252.393L294.769 223.302Z" fill="#FFCC33"/>
</g>
<mask id="mask5_24_132" style="mask-type:luminance" maskUnits="userSpaceOnUse" x="-1" y="320" width="154" height="19">
<path d="M152.997 320.997H-0.116211V338.3H152.997V320.997Z" fill="white"/>
</mask>
<g mask="url(#mask5_24_132)">
<path d="M187.429 78.5417L-145.14 298.514L-125.945 327.605L206.624 107.633L187.429 78.5417Z" fill="#171717"/>
<path d="M206.531 107.495L-126.037 327.468L-106.842 356.559L225.726 136.586L206.531 107.495Z" fill="#FFCC33"/>
<path d="M225.635 136.446L-106.934 356.418L-87.7386 385.509L244.83 165.537L225.635 136.446Z" fill="#171717"/>
<path d="M244.74 165.398L-87.8281 385.371L-68.6331 414.462L263.935 194.489L244.74 165.398Z" fill="#FFCC33"/>
<path d="M263.843 194.352L-68.7256 414.325L-49.5306 443.416L283.038 223.443L263.843 194.352Z" fill="#171717"/>
<path d="M282.947 223.302L-49.6211 443.274L-30.4261 472.365L302.142 252.393L282.947 223.302Z" fill="#FFCC33"/>
</g>
<mask id="mask6_24_132" style="mask-type:luminance" maskUnits="userSpaceOnUse" x="-1" y="300" width="154" height="21">
<path d="M152.997 300.02H-0.116211V320.455H152.997V300.02Z" fill="white"/>
</mask>
<g mask="url(#mask6_24_132)">
<path d="M251.279 78.5447L-81.2891 298.517L-62.0941 327.608L270.474 107.636L251.279 78.5447Z" fill="#171717"/>
<path d="M270.382 107.498L-62.1865 327.471L-42.9915 356.562L289.577 136.589L270.382 107.498Z" fill="#FFCC33"/>
<path d="M289.485 136.449L-43.083 356.421L-23.888 385.512L308.68 165.54L289.485 136.449Z" fill="#171717"/>
<path d="M308.591 165.401L-23.9775 385.374L-4.78253 414.464L327.786 194.492L308.591 165.401Z" fill="#FFCC33"/>
<path d="M327.693 194.353L-4.875 414.325L14.32 443.416L346.888 223.444L327.693 194.353Z" fill="#171717"/>
<path d="M346.795 223.303L14.2266 443.275L33.4216 472.366L365.99 252.394L346.795 223.303Z" fill="#FFCC33"/>
</g>
<mask id="mask7_24_132" style="mask-type:luminance" maskUnits="userSpaceOnUse" x="-1" y="280" width="154" height="21">
<path d="M152.997 280.468H-0.116211V300.02H152.997V280.468Z" fill="white"/>
</mask>
<g mask="url(#mask7_24_132)">
<path d="M238.902 49.8347L-93.666 269.807L-74.471 298.898L258.097 78.9256L238.902 49.8347Z" fill="#FFCC33"/>
<path d="M258.373 78.5451L-74.1953 298.518L-55.0003 327.608L277.568 107.636L258.373 78.5451Z" fill="#171717"/>
<path d="M277.476 107.499L-55.0928 327.471L-35.8978 356.562L296.671 136.59L277.476 107.499Z" fill="#FFCC33"/>
<path d="M296.579 136.447L-35.9893 356.419L-16.7943 385.51L315.774 165.538L296.579 136.447Z" fill="#171717"/>
<path d="M315.684 165.4L-16.8838 385.372L2.31122 414.463L334.88 194.491L315.684 165.4Z" fill="#FFCC33"/>
<path d="M334.785 194.353L2.2168 414.326L21.4118 443.417L353.98 223.444L334.785 194.353Z" fill="#171717"/>
<path d="M353.889 223.303L21.3203 443.275L40.5153 472.366L373.084 252.394L353.889 223.303Z" fill="#FFCC33"/>
</g>
<mask id="mask8_24_132" style="mask-type:luminance" maskUnits="userSpaceOnUse" x="-1" y="238" width="154" height="43">
<path d="M152.997 238.381H-0.116211V280.238H152.997V238.381Z" fill="white"/>
</mask>
<g mask="url(#mask8_24_132)">
<path d="M240.898 -8.06716L-91.6699 211.905L-72.4749 240.996L260.093 21.0238L240.898 -8.06716Z" fill="#FFCC33"/>
<path d="M260.001 20.8855L-72.5674 240.858L-53.3724 269.949L279.196 49.9764L260.001 20.8855Z" fill="#171717"/>
<path d="M279.104 49.8391L-53.4639 269.812L-34.2689 298.902L298.299 78.93L279.104 49.8391Z" fill="#FFCC33"/>
<path d="M298.575 78.5471L-33.9932 298.52L-14.7982 327.61L317.77 107.638L298.575 78.5471Z" fill="#171717"/>
<path d="M317.678 107.501L-14.8906 327.473L4.30439 356.564L336.873 136.592L317.678 107.501Z" fill="#FFCC33"/>
<path d="M336.781 136.451L4.21289 356.424L23.4079 385.515L355.976 165.542L336.781 136.451Z" fill="#171717"/>
<path d="M355.887 165.401L23.3184 385.374L42.5134 414.464L375.082 194.492L355.887 165.401Z" fill="#FFCC33"/>
<path d="M374.989 194.355L42.4209 414.328L61.6159 443.419L394.184 223.446L374.989 194.355Z" fill="#171717"/>
<path d="M394.091 223.305L61.5225 443.277L80.7175 472.368L413.286 252.396L394.091 223.305Z" fill="#FFCC33"/>
</g>
<mask id="mask9_24_132" style="mask-type:luminance" maskUnits="userSpaceOnUse" x="-1" y="186" width="154" height="53">
<path d="M152.997 186.558H-0.116211V238.381H152.997V186.558Z" fill="white"/>
</mask>
<g mask="url(#mask9_24_132)">
<path d="M131.932 -37.0203L-200.637 182.952L-181.442 212.043L151.127 -7.92935L131.932 -37.0203Z" fill="#171717"/>
<path d="M151.035 -8.0696L-181.533 211.903L-162.338 240.994L170.23 21.0213L151.035 -8.0696Z" fill="#FFCC33"/>
<path d="M170.141 20.8801L-162.428 240.853L-143.233 269.943L189.336 49.971L170.141 20.8801Z" fill="#171717"/>
<path d="M189.241 49.8342L-143.327 269.807L-124.132 298.898L208.436 78.9251L189.241 49.8342Z" fill="#FFCC33"/>
<path d="M208.712 78.5442L-123.856 298.517L-104.661 327.608L227.907 107.635L208.712 78.5442Z" fill="#171717"/>
<path d="M227.814 107.496L-104.754 327.468L-85.5589 356.559L247.009 136.587L227.814 107.496Z" fill="#FFCC33"/>
<path d="M246.918 136.446L-85.6504 356.418L-66.4554 385.509L266.113 165.537L246.918 136.446Z" fill="#171717"/>
<path d="M266.023 165.399L-66.5449 385.371L-47.3499 414.462L285.218 194.49L266.023 165.399Z" fill="#FFCC33"/>
<path d="M285.126 194.352L-47.4424 414.325L-28.2474 443.416L304.321 223.443L285.126 194.352Z" fill="#171717"/>
<path d="M304.229 223.303L-28.3389 443.275L-9.14386 472.366L323.424 252.394L304.229 223.303Z" fill="#FFCC33"/>
</g>
<mask id="mask10_24_132" style="mask-type:luminance" maskUnits="userSpaceOnUse" x="-1" y="35" width="154" height="62">
<path d="M152.997 35.3276H-0.116211V96.6471H152.997V35.3276Z" fill="white"/>
</mask>
<g mask="url(#mask10_24_132)">
<path d="M148.114 -94.9236L-184.454 125.049L-165.259 154.14L167.309 -65.8327L148.114 -94.9236Z" fill="#171717"/>
<path d="M167.219 -65.9739L-165.35 153.999L-146.155 183.089L186.414 -36.883L167.219 -65.9739Z" fill="#FFCC33"/>
<path d="M186.322 -37.0198L-146.246 182.953L-127.051 212.044L205.517 -7.92888L186.322 -37.0198Z" fill="#171717"/>
<path d="M205.426 -8.06962L-127.143 211.903L-107.948 240.994L224.621 21.0213L205.426 -8.06962Z" fill="#FFCC33"/>
<path d="M224.531 20.8831L-108.037 240.855L-88.8421 269.946L243.726 49.974L224.531 20.8831Z" fill="#171717"/>
<path d="M243.632 49.8367L-88.9365 269.809L-69.7415 298.9L262.827 78.9276L243.632 49.8367Z" fill="#FFCC33"/>
<path d="M263.102 78.5447L-69.4658 298.517L-50.2708 327.608L282.297 107.636L263.102 78.5447Z" fill="#171717"/>
</g>
</g>
<defs>
<clipPath id="clip0_24_132">
<rect width="153" height="398" fill="white"/>
</clipPath>
</defs>
</svg>
