<svg width="89" height="232" viewBox="0 0 89 232" fill="none" xmlns="http://www.w3.org/2000/svg">
<g clip-path="url(#clip0_24_11614)">
<mask id="mask0_24_11614" style="mask-type:luminance" maskUnits="userSpaceOnUse" x="-1" y="-1" width="91" height="22">
<path d="M89.0358 -0.012207H-0.0302734V20.5931H89.0358V-0.012207Z" fill="white"/>
</mask>
<g mask="url(#mask0_24_11614)">
<path d="M72.4352 -55.3325L-121.02 72.8926L-109.854 89.8501L83.601 -38.375L72.4352 -55.3325Z" fill="#171717"/>
<path d="M83.5505 -38.4563L-109.904 89.7688L-98.7386 106.726L94.7162 -21.4988L83.5505 -38.4563Z" fill="#FFCC33"/>
<path d="M94.6559 -21.5794L-98.7988 106.646L-87.6331 123.603L105.822 -4.62186L94.6559 -21.5794Z" fill="#171717"/>
<path d="M105.771 -4.70291L-87.6836 123.522L-76.5179 140.48L116.937 12.2546L105.771 -4.70291Z" fill="#FFCC33"/>
<path d="M116.886 12.1728L-76.5684 140.398L-65.4026 157.355L128.052 29.1303L116.886 12.1728Z" fill="#171717"/>
</g>
<mask id="mask1_24_11614" style="mask-type:luminance" maskUnits="userSpaceOnUse" x="-1" y="56" width="91" height="9">
<path d="M89.0074 56.3374H-0.0585938V64.6844H89.0074V56.3374Z" fill="white"/>
</mask>
<g mask="url(#mask1_24_11614)">
<path d="M90.2819 -55.333L-103.173 72.8921L-92.0071 89.8496L101.448 -38.3755L90.2819 -55.333Z" fill="#171717"/>
<path d="M101.397 -38.4561L-92.0576 89.769L-80.8919 106.727L112.563 -21.4986L101.397 -38.4561Z" fill="#FFCC33"/>
<path d="M112.511 -21.5786L-80.9434 106.646L-69.7776 123.604L123.677 -4.62113L112.511 -21.5786Z" fill="#171717"/>
<path d="M123.618 -4.70292L-69.8369 123.522L-58.6712 140.48L134.784 12.2546L123.618 -4.70292Z" fill="#FFCC33"/>
<path d="M134.732 12.1736L-58.7227 140.399L-47.5569 157.356L145.898 29.1311L134.732 12.1736Z" fill="#171717"/>
<path d="M145.847 29.0515L-47.6074 157.277L-36.4417 174.234L157.013 46.009L145.847 29.0515Z" fill="#FFCC33"/>
<path d="M157.171 45.7851L-36.2842 174.01L-25.1185 190.968L168.336 62.7426L157.171 45.7851Z" fill="#171717"/>
<path d="M168.285 62.6633L-25.1699 190.888L-14.0042 207.846L179.451 79.6208L168.285 62.6633Z" fill="#FFCC33"/>
</g>
<mask id="mask2_24_11614" style="mask-type:luminance" maskUnits="userSpaceOnUse" x="-1" y="64" width="91" height="46">
<path d="M89.0074 64.5569H-0.0585938V109.047H89.0074V64.5569Z" fill="white"/>
</mask>
<g mask="url(#mask2_24_11614)">
<path d="M73.777 -55.3345L-119.678 72.8906L-108.512 89.8481L84.9427 -38.377L73.777 -55.3345Z" fill="#171717"/>
<path d="M84.8923 -38.4563L-108.562 89.7688L-97.3968 106.726L96.058 -21.4988L84.8923 -38.4563Z" fill="#FFCC33"/>
<path d="M96.0065 -21.5801L-97.4482 106.645L-86.2825 123.603L107.172 -4.62259L96.0065 -21.5801Z" fill="#171717"/>
<path d="M107.113 -4.70438L-86.3418 123.521L-75.1761 140.478L118.279 12.2531L107.113 -4.70438Z" fill="#FFCC33"/>
<path d="M118.227 12.1731L-75.2275 140.398L-64.0618 157.356L129.393 29.1306L118.227 12.1731Z" fill="#171717"/>
<path d="M129.342 29.05L-64.1123 157.275L-52.9466 174.233L140.508 46.0075L129.342 29.05Z" fill="#FFCC33"/>
<path d="M140.666 45.7849L-52.7891 174.01L-41.6233 190.968L151.831 62.7424L140.666 45.7849Z" fill="#171717"/>
<path d="M151.778 62.6616L-41.6768 190.887L-30.511 207.844L162.944 79.6191L151.778 62.6616Z" fill="#FFCC33"/>
<path d="M162.893 79.5376L-30.5615 207.763L-19.3958 224.72L174.059 96.4951L162.893 79.5376Z" fill="#171717"/>
<path d="M173.999 96.415L-19.4561 224.64L-8.29033 241.598L185.164 113.373L173.999 96.415Z" fill="#FFCC33"/>
</g>
<mask id="mask3_24_11614" style="mask-type:luminance" maskUnits="userSpaceOnUse" x="-1" y="207" width="91" height="25">
<path d="M89.0074 207.432H-0.0585938V231.969H89.0074V207.432Z" fill="white"/>
</mask>
<g mask="url(#mask3_24_11614)">
<path d="M120.14 62.6606L-73.3145 190.886L-62.1487 207.843L131.306 79.6181L120.14 62.6606Z" fill="#FFCC33"/>
<path d="M131.255 79.5363L-62.2002 207.761L-51.0345 224.719L142.42 96.4939L131.255 79.5363Z" fill="#171717"/>
<path d="M142.37 96.4126L-51.085 224.638L-39.9192 241.595L153.535 113.37L142.37 96.4126Z" fill="#FFCC33"/>
<path d="M153.476 113.291L-39.9785 241.516L-28.8128 258.473L164.642 130.248L153.476 113.291Z" fill="#171717"/>
<path d="M175.759 147.124L-17.6953 275.349L-4.62719 295.196L188.828 166.971L175.759 147.124Z" fill="#171717"/>
<path d="M164.591 130.166L-28.8643 258.392L-17.6985 275.349L175.756 147.124L164.591 130.166Z" fill="#FFCC33"/>
</g>
<mask id="mask4_24_11614" style="mask-type:luminance" maskUnits="userSpaceOnUse" x="-1" y="197" width="91" height="11">
<path d="M89.0074 197.2H-0.0585938V207.432H89.0074V197.2Z" fill="white"/>
</mask>
<g mask="url(#mask4_24_11614)">
<path d="M127.016 62.6604L-66.4385 190.885L-55.2728 207.843L138.182 79.6179L127.016 62.6604Z" fill="#FFCC33"/>
<path d="M138.122 79.5361L-55.333 207.761L-44.1673 224.719L149.287 96.4936L138.122 79.5361Z" fill="#171717"/>
<path d="M149.237 96.4123L-44.2178 224.637L-33.0521 241.595L160.403 113.37L149.237 96.4123Z" fill="#FFCC33"/>
<path d="M160.352 113.291L-33.1025 241.516L-21.9368 258.473L171.518 130.248L160.352 113.291Z" fill="#171717"/>
<path d="M171.467 130.165L-21.9873 258.391L-10.8216 275.348L182.633 147.123L171.467 130.165Z" fill="#FFCC33"/>
</g>
<mask id="mask5_24_11614" style="mask-type:luminance" maskUnits="userSpaceOnUse" x="-1" y="187" width="91" height="11">
<path d="M89.0074 187.115H-0.0585938V197.201H89.0074V187.115Z" fill="white"/>
</mask>
<g mask="url(#mask5_24_11614)">
<path d="M109.035 45.7832L-84.4199 174.008L-73.2542 190.966L120.201 62.7407L109.035 45.7832Z" fill="#171717"/>
<path d="M120.14 62.6606L-73.3145 190.886L-62.1487 207.843L131.306 79.6181L120.14 62.6606Z" fill="#FFCC33"/>
<path d="M131.255 79.5363L-62.2002 207.761L-51.0345 224.719L142.42 96.4939L131.255 79.5363Z" fill="#171717"/>
<path d="M142.37 96.4126L-51.085 224.638L-39.9192 241.595L153.535 113.37L142.37 96.4126Z" fill="#FFCC33"/>
<path d="M153.476 113.291L-39.9785 241.516L-28.8128 258.473L164.642 130.248L153.476 113.291Z" fill="#171717"/>
<path d="M164.591 130.166L-28.8643 258.392L-17.6985 275.349L175.756 147.124L164.591 130.166Z" fill="#FFCC33"/>
</g>
<mask id="mask6_24_11614" style="mask-type:luminance" maskUnits="userSpaceOnUse" x="-1" y="174" width="91" height="13">
<path d="M89.0074 174.886H-0.0585938V186.798H89.0074V174.886Z" fill="white"/>
</mask>
<g mask="url(#mask6_24_11614)">
<path d="M146.176 45.7854L-47.2783 174.01L-36.1126 190.968L157.342 62.7429L146.176 45.7854Z" fill="#171717"/>
<path d="M157.282 62.6628L-36.1729 190.888L-25.0071 207.845L168.448 79.6203L157.282 62.6628Z" fill="#FFCC33"/>
<path d="M168.397 79.5385L-25.0576 207.764L-13.8919 224.721L179.563 96.496L168.397 79.5385Z" fill="#171717"/>
<path d="M179.511 96.4148L-13.9434 224.64L-2.77764 241.597L190.677 113.372L179.511 96.4148Z" fill="#FFCC33"/>
<path d="M190.627 113.291L-2.82812 241.516L8.3376 258.473L201.792 130.248L190.627 113.291Z" fill="#171717"/>
<path d="M201.732 130.166L8.27734 258.391L19.4431 275.349L212.898 147.124L201.732 130.166Z" fill="#FFCC33"/>
</g>
<mask id="mask7_24_11614" style="mask-type:luminance" maskUnits="userSpaceOnUse" x="-1" y="163" width="91" height="12">
<path d="M89.0074 163.489H-0.0585938V174.886H89.0074V163.489Z" fill="white"/>
</mask>
<g mask="url(#mask7_24_11614)">
<path d="M138.97 29.0503L-54.4844 157.275L-43.3187 174.233L150.136 46.0078L138.97 29.0503Z" fill="#FFCC33"/>
<path d="M150.3 45.7856L-43.1543 174.011L-31.9886 190.968L161.466 62.7431L150.3 45.7856Z" fill="#171717"/>
<path d="M161.406 62.6631L-32.0488 190.888L-20.8831 207.846L172.572 79.6206L161.406 62.6631Z" fill="#FFCC33"/>
<path d="M172.52 79.5376L-20.9346 207.763L-9.76886 224.72L183.686 96.4951L172.52 79.5376Z" fill="#171717"/>
<path d="M183.635 96.4141L-9.81934 224.639L1.34639 241.597L194.801 113.372L183.635 96.4141Z" fill="#FFCC33"/>
<path d="M194.751 113.292L1.2959 241.517L12.4616 258.475L205.916 130.25L194.751 113.292Z" fill="#171717"/>
<path d="M205.866 130.168L12.4111 258.393L23.5769 275.35L217.032 147.125L205.866 130.168Z" fill="#FFCC33"/>
</g>
<mask id="mask8_24_11614" style="mask-type:luminance" maskUnits="userSpaceOnUse" x="-1" y="138" width="91" height="26">
<path d="M89.0074 138.956H-0.0585938V163.355H89.0074V138.956Z" fill="white"/>
</mask>
<g mask="url(#mask8_24_11614)">
<path d="M140.135 -4.70316L-53.3193 123.522L-42.1536 140.479L151.301 12.2544L140.135 -4.70316Z" fill="#FFCC33"/>
<path d="M151.241 12.1738L-42.2139 140.399L-31.0481 157.356L162.407 29.1313L151.241 12.1738Z" fill="#171717"/>
<path d="M162.356 29.0515L-31.0986 157.277L-19.9329 174.234L173.522 46.009L162.356 29.0515Z" fill="#FFCC33"/>
<path d="M173.678 45.7856L-19.7764 174.011L-8.61064 190.968L184.844 62.7431L173.678 45.7856Z" fill="#171717"/>
<path d="M184.794 62.6631L-8.66113 190.888L2.50459 207.846L195.959 79.6206L184.794 62.6631Z" fill="#FFCC33"/>
<path d="M195.909 79.54L2.4541 207.765L13.6198 224.723L207.075 96.4975L195.909 79.54Z" fill="#171717"/>
<path d="M207.021 96.4153L13.5664 224.64L24.7321 241.598L218.187 113.373L207.021 96.4153Z" fill="#FFCC33"/>
<path d="M218.127 113.292L24.6719 241.517L35.8376 258.475L229.292 130.25L218.127 113.292Z" fill="#171717"/>
<path d="M229.242 130.168L35.7871 258.393L46.9528 275.35L240.408 147.125L229.242 130.168Z" fill="#FFCC33"/>
</g>
<mask id="mask9_24_11614" style="mask-type:luminance" maskUnits="userSpaceOnUse" x="-1" y="108" width="91" height="31">
<path d="M89.0074 108.748H-0.0585938V138.956H89.0074V108.748Z" fill="white"/>
</mask>
<g mask="url(#mask9_24_11614)">
<path d="M76.7496 -21.5798L-116.705 106.645L-105.539 123.603L87.9154 -4.62232L76.7496 -21.5798Z" fill="#171717"/>
<path d="M87.8649 -4.70462L-105.59 123.521L-94.4241 140.478L99.0306 12.2529L87.8649 -4.70462Z" fill="#FFCC33"/>
<path d="M98.9782 12.1711L-94.4766 140.396L-83.3108 157.354L110.144 29.1286L98.9782 12.1711Z" fill="#171717"/>
<path d="M110.084 29.0488L-83.3711 157.274L-72.2054 174.231L121.249 46.0063L110.084 29.0488Z" fill="#FFCC33"/>
<path d="M121.415 45.7854L-72.04 174.01L-60.8743 190.968L132.58 62.7429L121.415 45.7854Z" fill="#171717"/>
<path d="M132.521 62.6604L-60.9336 190.885L-49.7679 207.843L143.687 79.6179L132.521 62.6604Z" fill="#FFCC33"/>
<path d="M143.636 79.5361L-49.8184 207.761L-38.6526 224.719L154.802 96.4936L143.636 79.5361Z" fill="#171717"/>
<path d="M154.751 96.4136L-38.7041 224.639L-27.5384 241.596L165.916 113.371L154.751 96.4136Z" fill="#FFCC33"/>
<path d="M165.866 113.291L-27.5889 241.516L-16.4231 258.473L177.032 130.248L165.866 113.291Z" fill="#171717"/>
<path d="M176.971 130.166L-16.4834 258.391L-5.31768 275.349L188.137 147.124L176.971 130.166Z" fill="#FFCC33"/>
</g>
<mask id="mask10_24_11614" style="mask-type:luminance" maskUnits="userSpaceOnUse" x="-1" y="20" width="91" height="37">
<path d="M89.0074 20.5928H-0.0585938V56.3368H89.0074V20.5928Z" fill="white"/>
</mask>
<g mask="url(#mask10_24_11614)">
<path d="M86.1579 -55.3321L-107.297 72.8931L-96.1312 89.8506L97.3236 -38.3745L86.1579 -55.3321Z" fill="#171717"/>
<path d="M97.2731 -38.4563L-96.1816 89.7688L-85.0159 106.726L108.439 -21.4988L97.2731 -38.4563Z" fill="#FFCC33"/>
<path d="M108.379 -21.5799L-85.0762 106.645L-73.9104 123.603L119.544 -4.62235L108.379 -21.5799Z" fill="#171717"/>
<path d="M119.494 -4.70316L-73.9609 123.522L-62.7952 140.479L130.66 12.2544L119.494 -4.70316Z" fill="#FFCC33"/>
<path d="M130.609 12.1733L-62.8457 140.398L-51.68 157.356L141.775 29.1309L130.609 12.1733Z" fill="#171717"/>
<path d="M141.715 29.0515L-51.7402 157.277L-40.5745 174.234L152.88 46.009L141.715 29.0515Z" fill="#FFCC33"/>
<path d="M153.047 45.7849L-40.4082 174.01L-29.2425 190.968L164.212 62.7424L153.047 45.7849Z" fill="#171717"/>
</g>
</g>
<defs>
<clipPath id="clip0_24_11614">
<rect width="89" height="232" fill="white"/>
</clipPath>
</defs>
</svg>
