<svg width="217" height="188" viewBox="0 0 217 188" fill="none" xmlns="http://www.w3.org/2000/svg">
<path d="M162.751 0H54.2484L0 93.9619L54.2484 187.93H162.751L217 93.9619L162.751 0Z" fill="#FFCC33"/>
<path d="M72.6384 56.227C73.0675 56.5667 73.0973 57.407 73.0556 57.9433C72.6861 63.1101 70.3619 69.8621 69.8017 75.464C68.5503 87.9072 66.5956 112.591 79.5156 119.361C88.0196 123.819 117.858 123.616 127.822 122.162C137.834 120.702 144.115 117.144 146.386 106.757C149.944 90.4936 147.024 72.9193 144.08 56.823C144.443 55.7741 145.48 55.7086 146.41 55.5477C148.633 55.1603 158.46 53.7896 159.789 54.5822C161.857 55.8099 164.389 77.3352 164.568 80.7857C165.48 98.0739 165.921 122.835 149.002 132.609C133.251 141.709 88.258 141.339 71.5896 134.432C50.9104 125.863 51.4051 98.5805 52.4837 79.5938C52.6685 76.34 55.529 55.7145 57.2512 54.5644C58.3716 53.8194 71.6849 55.4583 72.6384 56.2151V56.227Z" fill="#171717"/>
</svg>
