<svg width="390" height="115" viewBox="0 0 390 115" fill="none" xmlns="http://www.w3.org/2000/svg">
<path d="M141.707 1.22909H102.023L82.1744 35.9481L102.023 70.667H141.707L161.555 35.9481L141.707 1.22909ZM142.412 0L162.954 35.9481L142.412 71.8961H101.329L80.7871 35.9481L101.329 0H142.412Z" fill="#FFCC33"/>
<path d="M-5.08057 1.22909H-44.7646L-64.6127 35.9481L-44.7646 70.667H-5.08057L14.7675 35.9481L-5.08057 1.22909ZM-4.37473 0L16.167 35.9481L-4.37473 71.8961H-45.4582L-66 35.9481L-45.4582 0H-4.37473Z" fill="#FFCC33"/>
<path d="M360.919 43.5365H321.235L301.387 78.2554L321.235 112.974H360.919L380.768 78.2554L360.919 43.5365ZM361.625 42.3074L382.167 78.2554L361.625 114.203H320.542L300 78.2554L320.542 42.3074H361.625Z" fill="#FFCC33"/>
<path d="M287.738 1.22909H248.054L228.206 35.9481L248.054 70.667H287.738L307.586 35.9481L287.738 1.22909ZM288.444 0L308.985 35.9481L288.444 71.8961H247.36L226.818 35.9481L247.36 0H288.444Z" fill="#FFCC33"/>
<path d="M433.919 1.22909H394.235L374.387 35.9481L394.235 70.667H433.919L453.768 35.9481L433.919 1.22909ZM434.625 0L455.167 35.9481L434.625 71.8961H393.542L373 35.9481L393.542 0H434.625Z" fill="#FFCC33"/>
<path d="M68.6909 43.8216H29.0069L9.1588 78.5406L29.0069 113.26H68.6909L88.539 78.5406L68.6909 43.8216ZM69.3968 42.5925L89.9385 78.5406L69.3968 114.489H28.3132L7.77148 78.5406L28.3132 42.5925H69.3968Z" fill="#FFCC33"/>
<path d="M214.957 42.3074H175.046L155.092 76.8698L175.046 111.434H214.957L234.912 76.8698L214.957 42.3074Z" fill="#FFCC33"/>
<path d="M181.811 62.9896C181.969 63.1146 181.98 63.4237 181.965 63.621C181.829 65.5215 180.974 68.0051 180.768 70.0657C180.308 74.6427 179.589 83.7223 184.341 86.2125C187.469 87.8522 198.445 87.7776 202.11 87.2428C205.793 86.7057 208.103 85.397 208.938 81.5763C210.247 75.5941 209.173 69.1296 208.09 63.2088C208.224 62.823 208.605 62.7989 208.947 62.7397C209.765 62.5973 213.379 62.0931 213.868 62.3846C214.629 62.8362 215.561 70.754 215.626 72.0232C215.962 78.3824 216.124 87.4905 209.901 91.0855C204.107 94.4328 187.557 94.2969 181.426 91.7562C173.819 88.604 174.001 78.5687 174.398 71.5848C174.466 70.3879 175.518 62.8011 176.151 62.378C176.564 62.104 181.461 62.7069 181.811 62.9853V62.9896Z" fill="#171717"/>
</svg>
