<svg width="1440" height="929" viewBox="0 0 1440 929" fill="none" xmlns="http://www.w3.org/2000/svg">
<g clip-path="url(#clip0_24_5748)">
<path d="M575.749 -87.249H468.277L414.524 6.77728L468.277 100.804H575.749L629.502 6.77728L575.749 -87.249ZM577.661 -90.5776L633.292 6.77728L577.661 104.132H466.398L410.767 6.77728L466.398 -90.5776H577.661Z" fill="#FFCC33"/>
<path d="M1168.98 28.1011H1061.5L1007.75 122.127L1061.5 216.154H1168.98L1222.73 122.127L1168.98 28.1011ZM1170.89 24.7725L1226.52 122.127L1170.89 219.482H1059.62L1003.99 122.127L1059.62 24.7725H1170.89Z" fill="#FFCC33"/>
<path d="M971.234 -87.249H863.761L810.008 6.77728L863.761 100.804H971.234L1024.99 6.77728L971.234 -87.249ZM973.145 -90.5776L1028.78 6.77728L973.145 104.132H861.882L806.251 6.77728L861.882 -90.5776H973.145Z" fill="#FFCC33"/>
<path d="M1564.46 28.1011H1456.98L1403.23 122.127L1456.98 216.154H1564.46L1618.21 122.127L1564.46 28.1011ZM1566.37 24.7725L1622 122.127L1566.37 219.482H1455.11L1399.47 122.127L1455.11 24.7725H1566.37Z" fill="#FFCC33"/>
<path d="M1366.72 -87.249H1259.24L1205.49 6.77728L1259.24 100.804H1366.72L1420.47 6.77728L1366.72 -87.249ZM1368.63 -90.5776L1424.26 6.77728L1368.63 104.132H1257.36L1201.73 6.77728L1257.36 -90.5776H1368.63Z" fill="#FFCC33"/>
<path d="M1366.72 143.45H1259.24L1205.49 237.477L1259.24 331.503H1366.72L1420.47 237.477L1366.72 143.45ZM1368.63 140.122L1424.26 237.477L1368.63 334.831H1257.36L1201.73 237.477L1257.36 140.122H1368.63Z" fill="#FFCC33"/>
<path d="M1564.46 258.8H1456.98L1403.23 352.826L1456.98 446.853H1564.46L1618.21 352.826L1564.46 258.8ZM1566.37 255.471L1622 352.826L1566.37 450.181H1455.11L1399.47 352.826L1455.11 255.471H1566.37Z" fill="#FFCC33"/>
<path d="M1564.46 489.499H1456.98L1403.23 583.525L1456.98 677.551H1564.46L1618.21 583.525L1564.46 489.499ZM1566.37 486.17L1622 583.525L1566.37 680.88H1455.11L1399.47 583.525L1455.11 486.17H1566.37Z" fill="#FFCC33"/>
<path d="M1564.46 720.329H1456.98L1403.23 814.355L1456.98 908.381H1564.46L1618.21 814.355L1564.46 720.329ZM1566.37 717L1622 814.355L1566.37 911.71H1455.11L1399.47 814.355L1455.11 717H1566.37Z" fill="#FFCC33"/>
<path d="M180.266 -87.249H72.7931L19.0402 6.77728L72.7931 100.804H180.266L234.019 6.77728L180.266 -87.249ZM182.177 -90.5776L237.809 6.77728L182.177 104.132H70.9146L15.2832 6.77728L70.9146 -90.5776H182.177Z" fill="#FFCC33"/>
<path d="M-17.4763 258.8H-124.949L-178.702 352.826L-124.949 446.853H-17.4763L36.2765 352.826L-17.4763 258.8ZM-15.5648 255.471L40.0666 352.826L-15.5648 450.181H-126.828L-182.459 352.826L-126.828 255.471H-15.5648Z" fill="#FFCC33"/>
<path d="M365.983 27.3286H258.51L204.757 121.355L258.51 215.381H365.983L419.736 121.355L365.983 27.3286ZM367.894 24L423.526 121.355L367.894 218.71H256.631L201 121.355L256.631 24H367.894Z" fill="#FFCC33"/>
<path d="M773.983 27.3286H666.51L612.757 121.355L666.51 215.381H773.983L827.736 121.355L773.983 27.3286ZM775.894 24L831.526 121.355L775.894 218.71H664.631L609 121.355L664.631 24H775.894Z" fill="#FFCC33"/>
<path d="M180.266 604.848H72.7931L19.0402 698.874L72.7931 792.901H180.266L234.019 698.874L180.266 604.848ZM182.177 601.519L237.809 698.874L182.177 796.229H70.9146L15.2832 698.874L70.9146 601.519H182.177Z" fill="#FFCC33"/>
<path d="M365.983 720.329H258.51L204.757 814.355L258.51 908.381H365.983L419.736 814.355L365.983 720.329ZM367.894 717L423.526 814.355L367.894 911.71H256.631L201 814.355L256.631 717H367.894Z" fill="#FFCC33"/>
<path d="M1365.98 604.848H1258.51L1204.76 698.874L1258.51 792.901H1365.98L1419.74 698.874L1365.98 604.848ZM1367.89 601.519L1423.53 698.874L1367.89 796.229H1256.63L1201 698.874L1256.63 601.519H1367.89Z" fill="#FFCC33"/>
<path d="M-17.4763 489.499H-124.949L-178.702 583.525L-124.949 677.551H-17.4763L36.2765 583.525L-17.4763 489.499ZM-15.5648 486.17L40.0666 583.525L-15.5648 680.88H-126.828L-182.459 583.525L-126.828 486.17H-15.5648Z" fill="#FFCC33"/>
<path d="M176.611 143.437H69.1378L15.385 237.463L69.1378 331.489H176.611L230.363 237.463L176.611 143.437ZM178.522 140.108L234.154 237.463L178.522 334.818H67.2593L11.6279 237.463L67.2593 140.108H178.522Z" fill="#FFCC33"/>
<path d="M180.113 372H72.0253L17.9844 465.602L72.0253 559.211H180.113L234.154 465.602L180.113 372Z" fill="#FFCC33"/>
<path d="M90.3449 428.012C90.7724 428.35 90.802 429.187 90.7605 429.722C90.3924 434.869 88.0771 441.595 87.5191 447.175C86.2724 459.571 84.3252 484.16 97.1958 490.904C105.667 495.345 135.392 495.143 145.318 493.695C155.291 492.24 161.549 488.696 163.81 478.348C167.355 462.147 164.446 444.64 161.513 428.606C161.875 427.561 162.908 427.495 163.834 427.335C166.049 426.949 175.838 425.584 177.162 426.373C179.222 427.596 181.745 449.039 181.923 452.477C182.831 469.699 183.271 494.365 166.417 504.101C150.726 513.167 105.905 512.799 89.3001 505.918C68.7001 497.381 69.1928 470.203 70.2673 451.289C70.4514 448.048 73.3009 427.501 75.0166 426.356C76.1327 425.614 89.3951 427.246 90.3449 428V428.012Z" fill="#171717"/>
</g>
<defs>
<clipPath id="clip0_24_5748">
<rect width="1440" height="929" fill="white"/>
</clipPath>
</defs>
</svg>
