<svg width="365" height="316" viewBox="0 0 365 316" fill="none" xmlns="http://www.w3.org/2000/svg">
<path d="M273.663 0H91.2176L0 157.995L91.2176 316H273.663L364.88 157.995L273.663 0Z" fill="#FFCC33"/>
<path d="M122.14 94.5445C122.862 95.1157 122.912 96.5286 122.842 97.4305C122.22 106.118 118.312 117.472 117.37 126.891C115.266 147.814 111.979 189.319 133.704 200.703C148.003 208.198 198.177 207.858 214.931 205.413C231.766 202.958 242.327 196.975 246.145 179.509C252.128 152.163 247.218 122.612 242.267 95.5466C242.879 93.783 244.622 93.6727 246.185 93.4022C249.923 92.7509 266.447 90.4461 268.682 91.7788C272.159 93.8431 276.418 130.038 276.718 135.839C278.251 164.909 278.993 206.545 250.544 222.979C224.06 238.28 148.404 237.659 120.377 226.045C85.6051 211.635 86.4368 165.761 88.2506 133.835C88.5612 128.364 93.3711 93.6828 96.2671 91.7488C98.1509 90.4962 120.537 93.2519 122.14 94.5245V94.5445Z" fill="#171717"/>
</svg>
