<svg width="743" height="369" viewBox="0 0 743 369" fill="none" xmlns="http://www.w3.org/2000/svg">
<g clip-path="url(#clip0_54_2291)">
<path d="M189.526 129.65L344.008 134.51L362.99 95.5272L185.865 90.0468L189.526 129.65Z" fill="#171717"/>
<path d="M87.857 213.757L142.701 128.18L178.134 129.29L174.464 89.697L104.728 87.5368L0 195.645L87.857 213.757Z" fill="#171717"/>
<path d="M87.867 225.308L4.46032 208.116L133.511 308.444L165.083 295.403L87.867 225.308Z" fill="#171717"/>
<path d="M148.76 139.691L97.8662 219.107L176.653 290.623L290.992 243.389L338.576 145.661L148.76 139.691Z" fill="#171717"/>
<path d="M553.474 130.461L398.991 135.321L380.01 96.3378L557.134 90.8574L553.474 130.461Z" fill="#171717"/>
<path d="M655.132 214.567L600.297 128.99L564.865 130.101L568.525 90.5074L638.261 88.3572L742.999 196.456L655.132 214.567Z" fill="#171717"/>
<path d="M655.133 226.128L738.54 208.927L609.489 309.265L577.907 296.214L655.133 226.128Z" fill="#171717"/>
<path d="M594.237 140.501L645.121 219.918L566.335 291.434L452.006 244.2L404.422 146.472L594.237 140.501Z" fill="#171717"/>
<path d="M418.204 19.462H324.776L278.053 100.379L324.776 181.295H418.204L464.928 100.379L418.204 19.462Z" fill="#171717"/>
<path d="M352.289 1.0103C352.519 1.19031 352.539 1.64035 352.509 1.93037C352.309 4.70059 351.069 8.31088 350.769 11.3111C350.099 17.9717 349.049 31.1927 355.969 34.813C360.519 37.2032 376.501 37.0932 381.831 36.3131C387.192 35.5331 390.552 33.6229 391.772 28.0625C393.672 19.3518 392.112 9.94101 390.542 1.32032C390.732 0.760276 391.292 0.720273 391.792 0.640267C392.982 0.43025 398.243 -0.299809 398.953 0.120225C400.063 0.780278 401.413 12.3012 401.513 14.1513C402.003 23.4121 402.233 36.6632 393.182 41.9036C384.751 46.774 360.66 46.5739 351.729 42.8837C340.658 38.2933 340.918 23.6821 341.498 13.5213C341.598 11.7812 343.128 0.730274 344.048 0.120225C344.648 -0.279807 351.779 0.600263 352.289 1.0003V1.0103Z" fill="#171717"/>
<path d="M287.023 363.919L202.826 218.078L287.023 72.246H455.416L539.613 218.078L455.416 363.919H287.023Z" fill="#171717"/>
<path d="M452.537 77.2464L533.843 218.078L452.537 358.919H289.914L208.607 218.078L289.914 77.2464H452.537ZM458.307 67.2456H284.133L281.243 72.246L199.936 213.077L197.046 218.078L199.936 223.078L281.243 363.919L284.133 368.92H458.307L461.197 363.919L542.504 223.078L545.394 218.078L542.504 213.077L461.197 72.246L458.307 67.2456Z" fill="#FFCC33"/>
<path d="M317.475 161.523C318.115 162.033 318.165 163.293 318.105 164.093C317.555 171.834 314.065 181.955 313.225 190.355C311.345 209.007 308.415 246 327.786 256.151C340.527 262.831 385.251 262.531 400.192 260.351C415.193 258.161 424.614 252.83 428.014 237.259C433.345 212.887 428.974 186.545 424.554 162.413C425.094 160.843 426.654 160.743 428.044 160.503C431.374 159.923 446.106 157.873 448.096 159.053C451.196 160.893 454.986 193.156 455.256 198.326C456.626 224.238 457.286 261.351 431.924 276.002C408.313 289.643 340.877 289.083 315.895 278.732C284.903 265.891 285.643 224.998 287.263 196.536C287.543 191.655 291.823 160.743 294.413 159.023C296.094 157.903 316.045 160.363 317.475 161.493V161.513V161.523Z" fill="#FFCC33"/>
</g>
<defs>
<clipPath id="clip0_54_2291">
<rect width="742.94" height="368.89" fill="white"/>
</clipPath>
</defs>
</svg>
